<svg xmlns="http://www.w3.org/2000/svg" width="71.934" height="12" viewBox="0 0 71.934 12">
  <g id="cgroup-logo" transform="translate(-2.8 -2.8)">
    <path id="Path_3233" data-name="Path 3233" d="M27.134,10.382h2.308a2.792,2.792,0,0,1-5.077-1.648A2.8,2.8,0,0,1,27.134,5.9a2.97,2.97,0,0,1,1.978.791l2.176-2.176a5.921,5.921,0,1,0,1.78,4.22V8.273H27.134Z" transform="translate(-6.268)" fill="#474444"/>
    <path id="Path_3234" data-name="Path 3234" d="M51.163,7.252A4.39,4.39,0,0,0,46.811,2.9H41.8V14.768h3.1V11.6h1.912l1.846,3.165h3.56l-2.505-4.286A4.606,4.606,0,0,0,51.163,7.252ZM46.811,8.9H44.9V5.471h1.912a1.7,1.7,0,0,1,1.714,1.714A1.663,1.663,0,0,1,46.811,8.9Z" transform="translate(-13.286 -0.034)" fill="#474444"/>
    <path id="Path_3235" data-name="Path 3235" d="M65.034,2.8a4.552,4.552,0,0,0-1.648.264A6.034,6.034,0,0,0,59.1,8.8a5.909,5.909,0,0,0,5.934,5.934,5.817,5.817,0,0,0,5.67-4.286A6.629,6.629,0,0,0,70.968,8.8,5.966,5.966,0,0,0,65.034,2.8Zm0,8.769a2.835,2.835,0,1,1,2.835-2.835A2.814,2.814,0,0,1,65.034,11.569Z" transform="translate(-19.179 0)" fill="#474444"/>
    <path id="Path_3236" data-name="Path 3236" d="M86.13,9.987a1.582,1.582,0,0,1-3.165,0V2.8H79.8V9.987a4.681,4.681,0,0,0,9.363,0V2.8H86V9.987Z" transform="translate(-26.231 0)" fill="#474444"/>
    <path id="Path_3237" data-name="Path 3237" d="M102.711,2.8H97.7V14.668h3.1V11.5h1.978a4.334,4.334,0,0,0,4.286-4.352A4.39,4.39,0,0,0,102.711,2.8Zm.066,6.066h-1.912V5.437h1.912a1.746,1.746,0,0,1,1.714,1.714A1.7,1.7,0,0,1,102.777,8.866Z" transform="translate(-32.329 0)" fill="#474444"/>
    <path id="Path_3238" data-name="Path 3238" d="M8.734,11.637A2.7,2.7,0,0,1,5.965,8.868,2.7,2.7,0,0,1,8.734,6.1a2.583,2.583,0,0,1,1.978.791l2.176-2.176A5.929,5.929,0,1,0,8.734,14.868a5.769,5.769,0,0,0,4.22-1.78l-2.242-2.176A2.991,2.991,0,0,1,8.734,11.637Z" transform="translate(0 -0.068)" fill="#f9bc15"/>
  </g>
</svg>
