<svg xmlns="http://www.w3.org/2000/svg" width="8" height="14" viewBox="0 0 8 14">
  <path id="fc" d="M17.829,7h-1.9a3.4,3.4,0,0,0-3.661,3.5v1.633h-1.9a.274.274,0,0,0-.271.233V14.7a.274.274,0,0,0,.271.233h1.9v5.833a.274.274,0,0,0,.271.233h2.576a.274.274,0,0,0,.271-.233V14.933h2.305a.274.274,0,0,0,.271-.233V12.367c0-.117,0-.117-.136-.233a.5.5,0,0,0-.271-.117H15.388v-1.4c0-.7.136-.933,1.085-.933h1.356A.274.274,0,0,0,18.1,9.45V7.233A.274.274,0,0,0,17.829,7Z" transform="translate(-10.1 -7)" fill="#546e7a"/>
</svg>
