<svg xmlns="http://www.w3.org/2000/svg" xmlns:xlink="http://www.w3.org/1999/xlink" width="24" height="20" viewBox="0 0 24 20">
  <defs>
    <clipPath id="clip-path">
      <rect id="Rectangle_1817" data-name="Rectangle 1817" width="24" height="20" rx="5" transform="translate(1145 19)" fill="#fff"/>
    </clipPath>
  </defs>
  <g id="geo-flag" transform="translate(-1145 -19)" clip-path="url(#clip-path)">
    <g id="georgia" transform="translate(1142.5 19)">
      <path id="Path_3438" data-name="Path 3438" d="M28.571,94.736A2.811,2.811,0,0,1,25.806,97.6H2.765A2.811,2.811,0,0,1,0,94.736V80.464A2.811,2.811,0,0,1,2.765,77.6H25.806a2.811,2.811,0,0,1,2.765,2.864Z" transform="translate(0 -77.6)" fill="#fff"/>
      <path id="Path_3442" data-name="Path 3442" d="M28.571,85.722H16.129V77.6H12.442v8.122H0v3.756H12.442V97.6h3.687V89.478H28.571Z" transform="translate(0 -77.6)" fill="#da1e37"/>
      <g id="Group_618" data-name="Group 618" transform="translate(5.3 2.515)">
        <g id="Group_619" data-name="Group 619" transform="translate(-1 0.1)">
          <rect id="Rectangle_1809" data-name="Rectangle 1809" width="0.773" height="3" transform="translate(3.236 0.485)" fill="#da1e37"/>
          <rect id="Rectangle_1810" data-name="Rectangle 1810" width="3" height="0.773" transform="translate(2.1 1.576)" fill="#da1e37"/>
        </g>
        <g id="Group_620" data-name="Group 620" transform="translate(-1 -0.1)">
          <rect id="Rectangle_1811" data-name="Rectangle 1811" width="0.773" height="3" transform="translate(3.236 11.485)" fill="#da1e37"/>
          <rect id="Rectangle_1812" data-name="Rectangle 1812" width="3" height="0.773" transform="translate(2.1 12.621)" fill="#da1e37"/>
        </g>
        <g id="Group_621" data-name="Group 621" transform="translate(1 0.1)">
          <rect id="Rectangle_1813" data-name="Rectangle 1813" width="0.773" height="3" transform="translate(13.936 0.485)" fill="#da1e37"/>
          <rect id="Rectangle_1814" data-name="Rectangle 1814" width="3" height="0.773" transform="translate(12.8 1.576)" fill="#da1e37"/>
        </g>
        <g id="Group_622" data-name="Group 622" transform="translate(1.1 -0.1)">
          <rect id="Rectangle_1815" data-name="Rectangle 1815" width="0.773" height="3" transform="translate(13.936 11.485)" fill="#da1e37"/>
          <rect id="Rectangle_1816" data-name="Rectangle 1816" width="3" height="0.773" transform="translate(12.8 12.621)" fill="#da1e37"/>
        </g>
      </g>
    </g>
  </g>
</svg>
