<svg xmlns="http://www.w3.org/2000/svg" width="14" height="14" viewBox="0 0 14 14">
  <g id="ins" transform="translate(-7 -7)">
    <path id="Path_18" data-name="Path 18" d="M16.279,10.517a.549.549,0,0,1-.579-.583V8.883a.549.549,0,0,1,.579-.583H17.32a.549.549,0,0,1,.579.583v1.05a.549.549,0,0,1-.579.583Z" transform="translate(1.366 0.217)" fill="#546e7a"/>
    <path id="Path_19" data-name="Path 19" d="M13.283,11.2a1.856,1.856,0,0,0-1.041.35h.347a1.05,1.05,0,1,1-1.041,1.05v-.35A1.892,1.892,0,0,0,11.2,13.3a2.083,2.083,0,1,0,2.083-2.1Z" transform="translate(0.66 0.7)" fill="#546e7a"/>
    <g id="Group_10" data-name="Group 10" transform="translate(9.661 9.683)">
      <path id="Path_20" data-name="Path 20" d="M13.581,10.35a3.247,3.247,0,0,1,3.24,3.267,3.177,3.177,0,0,1-3.24,3.267,3.267,3.267,0,0,1,0-6.533m0-1.05a4.317,4.317,0,0,0,0,8.633,4.317,4.317,0,0,0,0-8.633Z" transform="translate(-9.3 -9.3)" fill="#546e7a"/>
    </g>
    <path id="Path_21" data-name="Path 21" d="M18.339,7H9.661A2.629,2.629,0,0,0,7,9.683v8.75A2.6,2.6,0,0,0,9.661,21h8.678A2.7,2.7,0,0,0,21,18.317V9.683A2.782,2.782,0,0,0,18.339,7Zm1.5,4.9H16.372a3.37,3.37,0,0,1,.81,2.1A3.24,3.24,0,1,1,10.7,14a3.124,3.124,0,0,1,.81-2.1H8.041V9.683a1.538,1.538,0,0,1,1.5-1.517h8.678a1.538,1.538,0,0,1,1.5,1.517V11.9Z" transform="translate(0 0)" fill="#546e7a"/>
  </g>
</svg>
