<svg xmlns="http://www.w3.org/2000/svg" width="17" height="17" viewBox="0 0 17 17">
  <g id="loupe" transform="translate(0.5 0.5)">
    <g id="Group_20" data-name="Group 20">
      <g id="Group_19" data-name="Group 19">
        <path id="Path_39" data-name="Path 39" d="M7.046,0a7.046,7.046,0,1,0,7.046,7.046A7.054,7.054,0,0,0,7.046,0Zm0,12.791a5.745,5.745,0,1,1,5.745-5.745A5.752,5.752,0,0,1,7.046,12.791Z" fill="#09c688" stroke="#09c688" stroke-width="1"/>
      </g>
    </g>
    <g id="Group_22" data-name="Group 22" transform="translate(10.97 10.97)">
      <g id="Group_21" data-name="Group 21">
        <path id="Path_40" data-name="Path 40" d="M355.885,354.965l-3.729-3.729a.65.65,0,1,0-.92.92l3.729,3.729a.65.65,0,0,0,.92-.92Z" transform="translate(-351.046 -351.046)" fill="#09c688" stroke="#09c688" stroke-width="1"/>
      </g>
    </g>
  </g>
</svg>
