<svg xmlns="http://www.w3.org/2000/svg" width="60" height="14" viewBox="0 0 60 14">
  <g id="mob-logo" transform="translate(-81.97 -30.255)">
    <g id="Group_1" data-name="Group 1" transform="translate(123.439 32.493)">
      <path id="Path_1" data-name="Path 1" d="M603.065,90.151a.621.621,0,0,0-.165.454v1.028h1.737V90h-1.078A.742.742,0,0,0,603.065,90.151Z" transform="translate(-602.9 -83.302)" fill="#0ac789"/>
      <path id="Path_2" data-name="Path 2" d="M683.957,46.894a3.326,3.326,0,0,0-2.844-1.194,3.58,3.58,0,0,0-2.785,1.058A4.628,4.628,0,0,0,677.4,49.9a4.743,4.743,0,0,0,.913,3.175,3.554,3.554,0,0,0,2.77,1.134,3.77,3.77,0,0,0,2.365-.7,3.7,3.7,0,0,0,1.2-2.011h-1.5a1.115,1.115,0,0,0-.389.076.891.891,0,0,0-.314.212,2.217,2.217,0,0,1-.629.454,1.575,1.575,0,0,1-.689.151,1.44,1.44,0,0,1-1.153-.484,2.3,2.3,0,0,1-.449-1.406h5.24A5.471,5.471,0,0,0,683.957,46.894Zm-4.416,2.132a2.3,2.3,0,0,1,.494-1.24,1.39,1.39,0,0,1,1.048-.423,1.3,1.3,0,0,1,1.033.423,2.132,2.132,0,0,1,.464,1.24Z" transform="translate(-666.247 -45.7)" fill="#0ac789"/>
      <path id="Path_3" data-name="Path 3" d="M624.573,46.3a3.739,3.739,0,0,0-2.829,1.058,4.461,4.461,0,0,0-.943,3.084,5.231,5.231,0,0,0,.808,3.19,2.876,2.876,0,0,0,2.44,1.058,3,3,0,0,0,1.347-.3,2.435,2.435,0,0,0,.973-.907v.847a2.062,2.062,0,0,1-.419,1.421,1.506,1.506,0,0,1-1.213.484,2.107,2.107,0,0,1-1-.212,1,1,0,0,1-.464-.65H621.01a3.511,3.511,0,0,0,1.228,1.95,3.652,3.652,0,0,0,2.261.65,4.811,4.811,0,0,0,2.919-.816,2.837,2.837,0,0,0,.973-2.328V49.956a3.676,3.676,0,0,0-.943-2.767A3.986,3.986,0,0,0,624.573,46.3Zm.03,6.577a1.426,1.426,0,0,1-1.243-.59,3.176,3.176,0,0,1-.449-1.784,3.279,3.279,0,0,1,.419-1.86,1.451,1.451,0,0,1,1.3-.62,1.485,1.485,0,0,1,1.3.62,3.161,3.161,0,0,1,.419,1.86C626.309,52.087,625.725,52.874,624.6,52.874Z" transform="translate(-618.12 -46.206)" fill="#0ac789"/>
    </g>
    <g id="Group_2" data-name="Group 2" transform="translate(81.97 30.255)">
      <path id="Path_4" data-name="Path 4" d="M583.636,32.013a1.038,1.038,0,0,0-.225-.756,1.022,1.022,0,0,0-.749-.257H581.6v1.618h2.051v-.6Z" transform="translate(-543.32 -30.985)" fill="#546e7a"/>
      <path id="Path_5" data-name="Path 5" d="M528.517,41.589a3.782,3.782,0,0,0,2.844-1.073,4.461,4.461,0,0,0,.943-3.084,5.212,5.212,0,0,0-.808-3.175,3.032,3.032,0,0,0-2.44-1.134,2.717,2.717,0,0,0-1.332.317,2.527,2.527,0,0,0-.958.952V31.958a1.151,1.151,0,0,0-.254-.786.982.982,0,0,0-.763-.272H524.7v7a3.676,3.676,0,0,0,.943,2.767A3.863,3.863,0,0,0,528.517,41.589Zm-1.3-6.017a1.481,1.481,0,0,1,1.273-.59,1.409,1.409,0,0,1,1.242.59,3.131,3.131,0,0,1,.464,1.784,3.357,3.357,0,0,1-.434,1.875,1.505,1.505,0,0,1-1.317.635,1.435,1.435,0,0,1-1.287-.635,3.945,3.945,0,0,1,.06-3.659Z" transform="translate(-494.938 -30.9)" fill="#546e7a"/>
      <path id="Path_6" data-name="Path 6" d="M583.551,47.5a.947.947,0,0,0-.255-.741.984.984,0,0,0-.734-.257H581.5v8.209h2.051Z" transform="translate(-543.235 -44.141)" fill="#546e7a"/>
      <path id="Path_7" data-name="Path 7" d="M382.948,54.25a4.653,4.653,0,0,0,1.108.529,3.891,3.891,0,0,0,1.2.166,4.942,4.942,0,0,0,1.258-.151,5.432,5.432,0,0,0,1.153-.469,1.953,1.953,0,0,0,.793-1.043,4.957,4.957,0,0,0,.269-1.754V46.6h-1.048a1,1,0,0,0-.749.257.976.976,0,0,0-.225.756v4.339a1.416,1.416,0,0,1-.344,1.028,1.4,1.4,0,0,1-1.033.348,1.462,1.462,0,0,1-1.048-.348,1.416,1.416,0,0,1-.344-1.028V46.6H381.9v4.929a4.724,4.724,0,0,0,.27,1.724A1.934,1.934,0,0,0,382.948,54.25Z" transform="translate(-373.516 -44.226)" fill="#546e7a"/>
      <path id="Path_8" data-name="Path 8" d="M328.984,41.553h2.126V32.89h3.084V31h-7.231a1.014,1.014,0,0,0-.764.348,1.18,1.18,0,0,0-.3.8v.741h3.084v8.663Z" transform="translate(-325.9 -30.985)" fill="#546e7a"/>
      <path id="Path_9" data-name="Path 9" d="M435.466,50.446A1.907,1.907,0,0,1,435.9,49.1a1.658,1.658,0,0,1,1.272-.454h.689V46.5h-.284a4.351,4.351,0,0,0-3.084.983,4.148,4.148,0,0,0-1.093,2.978v4.233h2.066Z" transform="translate(-417.306 -44.141)" fill="#546e7a"/>
      <path id="Path_10" data-name="Path 10" d="M472.968,54.212a3.771,3.771,0,0,0,2.365-.7,3.7,3.7,0,0,0,1.2-2.011h-1.5a1.115,1.115,0,0,0-.389.076.891.891,0,0,0-.314.212,2.215,2.215,0,0,1-.629.454,1.575,1.575,0,0,1-.689.151,1.44,1.44,0,0,1-1.153-.484,2.3,2.3,0,0,1-.449-1.406h5.24a5.476,5.476,0,0,0-.793-3.613,3.326,3.326,0,0,0-2.844-1.194,3.579,3.579,0,0,0-2.785,1.058A4.628,4.628,0,0,0,469.3,49.9a4.742,4.742,0,0,0,.913,3.175A3.6,3.6,0,0,0,472.968,54.212ZM471.92,47.8a1.39,1.39,0,0,1,1.048-.423A1.305,1.305,0,0,1,474,47.8a2.133,2.133,0,0,1,.464,1.24h-3.039A2.2,2.2,0,0,1,471.92,47.8Z" transform="translate(-447.832 -43.462)" fill="#546e7a"/>
    </g>
  </g>
</svg>
