<svg xmlns="http://www.w3.org/2000/svg" width="13" height="12" viewBox="0 0 13 12">
  <g id="passage-of-time" transform="translate(0 -1.775)">
    <g id="Layer_1_65_" transform="translate(0 1.775)">
      <g id="Group_688" data-name="Group 688">
        <path id="Path_3755" data-name="Path 3755" d="M12.974,6.841a.274.274,0,0,0-.248-.157h-.81a6,6,0,1,0-.7,4.092.546.546,0,0,0-.946-.547A4.913,4.913,0,1,1,10.8,6.685H10a.273.273,0,0,0-.21.447l1.366,1.636a.273.273,0,0,0,.42,0l1.366-1.636A.272.272,0,0,0,12.974,6.841Z" transform="translate(0 -1.775)" fill="#78909c"/>
        <path id="Path_3756" data-name="Path 3756" d="M19.226,6.713a.546.546,0,0,0-.546.545v3.31a.952.952,0,0,0,.95,1.644l1.9,1.1a.545.545,0,1,0,.546-.944l-1.9-1.1a.95.95,0,0,0-.4-.7V7.258A.547.547,0,0,0,19.226,6.713Zm0,5.045a.409.409,0,1,1,.41-.409A.41.41,0,0,1,19.226,11.758Z" transform="translate(-13.217 -5.349)" fill="#78909c"/>
      </g>
    </g>
  </g>
</svg>
