<svg xmlns="http://www.w3.org/2000/svg" width="18.2" height="12.352" viewBox="0 0 18.2 12.352">
  <g id="museum" transform="translate(0.1 -83.067)">
    <g id="Group_804" data-name="Group 804" transform="translate(0 83.167)">
      <g id="Group_803" data-name="Group 803">
        <path id="Path_3889" data-name="Path 3889" d="M17.17,94.265h0V88.792H15.789q-.343,0-.688-.015V84.069H12.349l-.152.141a17.719,17.719,0,0,1-4.028,2.81,11.656,11.656,0,0,1-4.362-3.628l-.157-.225H.83v11.1H0v1.055H18V94.265h-.83Zm-4.408-9.141h1.285V88.7a17.6,17.6,0,0,1-4.665-1.135A18.772,18.772,0,0,0,12.761,85.124Zm3.354,9.141H1.885V84.222H3.1A13.268,13.268,0,0,0,8.633,88.4a18.665,18.665,0,0,0,7.156,1.448h.326Z" transform="translate(0 -83.167)" fill="#37474f" stroke="#37474f" stroke-width="0.2"/>
      </g>
    </g>
    <g id="Group_806" data-name="Group 806" transform="translate(3.598 91.194)">
      <g id="Group_805" data-name="Group 805">
        <rect id="Rectangle_1983" data-name="Rectangle 1983" width="1.055" height="1.5" fill="#37474f" stroke="#37474f" stroke-width="0.2"/>
      </g>
    </g>
    <g id="Group_808" data-name="Group 808" transform="translate(3.598 88.194)">
      <g id="Group_807" data-name="Group 807">
        <rect id="Rectangle_1984" data-name="Rectangle 1984" width="1.055" height="1.5" fill="#37474f" stroke="#37474f" stroke-width="0.2"/>
      </g>
    </g>
    <g id="Group_810" data-name="Group 810" transform="translate(6.848 91.194)">
      <g id="Group_809" data-name="Group 809">
        <rect id="Rectangle_1985" data-name="Rectangle 1985" width="1.055" height="1.5" fill="#37474f" stroke="#37474f" stroke-width="0.2"/>
      </g>
    </g>
    <g id="Group_812" data-name="Group 812" transform="translate(10.098 91.194)">
      <g id="Group_811" data-name="Group 811">
        <rect id="Rectangle_1986" data-name="Rectangle 1986" width="1.055" height="1.5" fill="#37474f" stroke="#37474f" stroke-width="0.2"/>
      </g>
    </g>
    <g id="Group_814" data-name="Group 814" transform="translate(13.348 91.194)">
      <g id="Group_813" data-name="Group 813">
        <rect id="Rectangle_1987" data-name="Rectangle 1987" width="1.055" height="1.5" fill="#37474f" stroke="#37474f" stroke-width="0.2"/>
      </g>
    </g>
  </g>
</svg>
