<svg xmlns="http://www.w3.org/2000/svg" width="12.516" height="18.1" viewBox="0 0 12.516 18.1">
  <g id="guide_1_" data-name="guide (1)" transform="translate(-79.363 0.05)">
    <g id="Group_816" data-name="Group 816" transform="translate(81.63)">
      <g id="Group_815" data-name="Group 815">
        <path id="Path_3890" data-name="Path 3890" d="M148.38,2.716a2.024,2.024,0,1,0-3.806,0A4.5,4.5,0,0,0,142.486,6.6a4.011,4.011,0,1,0,7.981,0A4.5,4.5,0,0,0,148.38,2.716Zm-1.9-1.662a.969.969,0,0,1,.928,1.248,3.626,3.626,0,0,0-1.857,0,.969.969,0,0,1,.928-1.248ZM143.541,6.6a3.172,3.172,0,0,1,2.936-3.359,2.689,2.689,0,0,1,1.756.669,6.607,6.607,0,0,1-4.692,2.713C143.541,6.61,143.541,6.6,143.541,6.6Zm2.936,3.359a3.006,3.006,0,0,1-2.784-2.292,8.431,8.431,0,0,0,3.789-1.5,7.979,7.979,0,0,0,1.711,1.706A2.969,2.969,0,0,1,146.477,9.954Zm1.809-4.473a6.61,6.61,0,0,0,.641-.734,3.69,3.69,0,0,1,.486,1.848c0,.04,0,.079,0,.118A8.142,8.142,0,0,1,148.286,5.481Z" transform="translate(-142.486)" fill="#37474f" stroke="#37474f" stroke-width="0.1"/>
      </g>
    </g>
    <g id="Group_818" data-name="Group 818" transform="translate(79.413 11.483)">
      <g id="Group_817" data-name="Group 817">
        <path id="Path_3891" data-name="Path 3891" d="M88.316,326.626H82.926a3.517,3.517,0,0,0-3.513,3.513v3H91.829v-3A3.517,3.517,0,0,0,88.316,326.626Zm-1.544,1.055-1.161,1.937-1.148-1.937Zm4,4.408H80.468v-1.95a2.461,2.461,0,0,1,2.458-2.458h.311l2.369,4,2.4-4h.314a2.461,2.461,0,0,1,2.458,2.458Z" transform="translate(-79.413 -326.626)" fill="#37474f" stroke="#37474f" stroke-width="0.1"/>
      </g>
    </g>
    <g id="Group_820" data-name="Group 820" transform="translate(87.843 14.859)">
      <g id="Group_819" data-name="Group 819">
        <rect id="Rectangle_1989" data-name="Rectangle 1989" width="1.868" height="1.055" fill="#37474f" stroke="#37474f" stroke-width="0.1"/>
      </g>
    </g>
  </g>
</svg>
