<svg xmlns="http://www.w3.org/2000/svg" width="18.174" height="18.101" viewBox="0 0 18.174 18.101">
  <g id="aviabiletebi" transform="translate(0.123 0.05)">
    <g id="Layer_1" data-name="Layer 1" transform="translate(0.001 0.001)">
      <path id="Path_4766" data-name="Path 4766" d="M22.69,17.784,23.36,17l.792.726-.67.787Z" transform="translate(-17.158 -12.713)" fill="#37474f" stroke="#37474f" stroke-width="0.1"/>
      <path id="Path_4767" data-name="Path 4767" d="M17.18,23.992l.673-.782.792.729-.673.782Z" transform="translate(-12.992 -17.357)" fill="#37474f" stroke="#37474f" stroke-width="0.1"/>
      <path id="Path_4768" data-name="Path 4768" d="M16.879,8.539H15.433L6.471.308a1.158,1.158,0,0,0-1.67.1L3.316,2.142l.4.363a1.215,1.215,0,0,1-.029,1.571,1.18,1.18,0,0,1-.824.414.952.952,0,0,1-.683-.2l-.395-.361L.3,5.657A1.255,1.255,0,0,0,.4,7.384l1.295,1.19a1.213,1.213,0,0,0-.917,1.19v2.312H1.3a1.22,1.22,0,0,1,0,2.391H.776v2.31A1.206,1.206,0,0,0,1.951,18H16.872A1.151,1.151,0,0,0,18,16.831V9.707a1.151,1.151,0,0,0-1.129-1.168ZM1.061,6.476a.126.126,0,0,1,.029-.093l.839-.976a2.092,2.092,0,0,0,.992.177A2.247,2.247,0,0,0,4.767,4.376a2.4,2.4,0,0,0-.012-2.259l.839-.976A.111.111,0,0,1,5.679,1.1a.115.115,0,0,1,.088.03L7.529,2.747,6.873,3.5l.792.729.656-.757,5.515,5.064H3.972l.336-.393-.79-.729-.656.757L1.1,6.557a.125.125,0,0,1-.041-.088ZM16.947,16.831a.072.072,0,0,1-.019.052.067.067,0,0,1-.049.022H5.364V15.888H4.313V16.9H1.951a.127.127,0,0,1-.124-.129v-1.3a2.357,2.357,0,0,0,0-4.4V9.762a.128.128,0,0,1,.037-.09.12.12,0,0,1,.088-.036H4.306v1.009H5.364V9.636H16.872a.065.065,0,0,1,.049.02.069.069,0,0,1,.019.051v7.124Z" transform="translate(-0.001 -0.001)" fill="#37474f" stroke="#37474f" stroke-width="0.1"/>
      <path id="Path_4769" data-name="Path 4769" d="M17.69,46.4h1.051v1.047H17.69Z" transform="translate(-13.377 -34.699)" fill="#37474f" stroke="#37474f" stroke-width="0.1"/>
      <path id="Path_4770" data-name="Path 4770" d="M17.69,54.69h1.051v1.047H17.69Z" transform="translate(-13.377 -40.899)" fill="#37474f" stroke="#37474f" stroke-width="0.1"/>
      <path id="Path_4771" data-name="Path 4771" d="M38.967,42.6l-.931.519.758,1.46H37.2l-.856-.885-.748.772.692.716-.58.842.861.638.685-.991h1.536l-.758,1.458.931.519L40,45.671h1.872V44.58H40Z" transform="translate(-26.921 -31.858)" fill="#37474f" stroke="#37474f" stroke-width="0.1"/>
    </g>
  </g>
</svg>
