<svg xmlns="http://www.w3.org/2000/svg" width="16.4" height="14.581" viewBox="0 0 16.4 14.581">
  <g id="damatebiti_bargi" data-name="damatebiti bargi" transform="translate(-3.861 -7.816)">
    <path id="Path_4762" data-name="Path 4762" d="M13.351,25.005a.373.373,0,0,1-.258-.1.344.344,0,0,1,0-.5l7.725-7.46a.374.374,0,0,1,.515,0,.345.345,0,0,1,0,.5L13.608,24.9A.365.365,0,0,1,13.351,25.005Z" transform="translate(-7.3 -7.125)" fill="#37474f" stroke="#37474f" stroke-width="0.4"/>
    <path id="Path_4763" data-name="Path 4763" d="M69.919,18.7a.371.371,0,0,1-.258-.1.344.344,0,0,1,0-.5l3.09-2.983-.515-.5a.344.344,0,0,1,0-.5.374.374,0,0,1,.515,0l.773.746a.345.345,0,0,1,0,.5L70.176,18.6A.381.381,0,0,1,69.919,18.7Z" transform="translate(-53.568 -4.794)" fill="#37474f" stroke="#37474f" stroke-width="0.4"/>
    <path id="Path_4764" data-name="Path 4764" d="M23.893,73.6a1.6,1.6,0,0,1-1.114-.446,1.491,1.491,0,0,1,0-2.155,1.659,1.659,0,0,1,2.23,0,1.491,1.491,0,0,1,0,2.155,1.594,1.594,0,0,1-1.115.446Zm0-2.342a.859.859,0,0,0-.6.24.8.8,0,0,0,0,1.159.893.893,0,0,0,1.2,0,.8.8,0,0,0,0-1.158A.857.857,0,0,0,23.894,71.257Z" transform="translate(-14.932 -51.401)" fill="#37474f" stroke="#37474f" stroke-width="0.4"/>
    <path id="Path_4765" data-name="Path 4765" d="M7.163,19.453a.373.373,0,0,1-.258-.1L4.583,17.107a1.925,1.925,0,0,1,.084-2.717L10.455,8.8a2.25,2.25,0,0,1,2.883-.148l4.043,3.9a.344.344,0,0,1,0,.5L10.94,19.276a.374.374,0,0,1-.515,0,2.118,2.118,0,0,0-3.005.076A.376.376,0,0,1,7.163,19.453Zm4.9-10.577a1.614,1.614,0,0,0-1.09.422L5.183,14.886A1.24,1.24,0,0,0,5.1,16.61l2.078,2.008a2.839,2.839,0,0,1,3.492-.075l5.94-5.735L12.826,9.151a1.081,1.081,0,0,0-.765-.275Z" fill="#37474f" stroke="#37474f" stroke-width="0.4"/>
  </g>
</svg>
