<svg xmlns="http://www.w3.org/2000/svg" width="16" height="16" viewBox="0 0 16 16">
  <path id="kveba" d="M16,3.659a2.656,2.656,0,1,1-5.312,0c0-1.134.152-3.006.158-3.085a.625.625,0,1,1,1.246.1c0,.019-.154,1.9-.154,2.983a1.407,1.407,0,1,0,2.812,0c0-1.084-.153-2.965-.154-2.983a.625.625,0,1,1,1.246-.1C15.849.653,16,2.524,16,3.659Zm-2.656,0a.625.625,0,0,0,.625-.625V.624a.625.625,0,1,0-1.25,0V3.031A.625.625,0,0,0,13.345,3.656ZM4.631,1.4a4.746,4.746,0,0,1,.683,2.257A2.673,2.673,0,0,1,2.657,6.343,2.673,2.673,0,0,1,0,3.659,4.746,4.746,0,0,1,.684,1.4,2.429,2.429,0,0,1,2.657,0,2.429,2.429,0,0,1,4.631,1.4ZM4.063,3.659A3.541,3.541,0,0,0,3.556,2.04c-.29-.488-.634-.791-.9-.791s-.609.3-.9.791a3.541,3.541,0,0,0-.507,1.618A1.422,1.422,0,0,0,2.657,5.093,1.422,1.422,0,0,0,4.063,3.659ZM2.657,7.593a.625.625,0,0,0-.625.625v7.156a.625.625,0,1,0,1.25,0V8.218a.625.625,0,0,0-.625-.625ZM9.345.624v14.75a.625.625,0,0,1-1.25,0V12.314a8.849,8.849,0,0,1-2.505-2.228.625.625,0,0,1-.12-.368A18.6,18.6,0,0,1,6.825,3.15,19.958,19.958,0,0,1,8.186.3.625.625,0,0,1,9.345.624ZM8.095,3.342q-.058.142-.115.289A17.527,17.527,0,0,0,6.722,9.5a8.11,8.11,0,0,0,1.373,1.316ZM13.97,15.374V8.218a.625.625,0,1,0-1.25,0v7.156a.625.625,0,1,0,1.25,0Z" transform="translate(-0.001 0.001)" fill="#37474f"/>
</svg>
