<svg xmlns="http://www.w3.org/2000/svg" width="18.4" height="14.683" viewBox="0 0 18.4 14.683">
  <path id="sastumroshigantavseba" d="M18,60.993a1.563,1.563,0,0,0-.85-1.4,4.531,4.531,0,0,0-2.058-.412H6.059a1.807,1.807,0,0,0-.425-.86L4.353,56.9a1.885,1.885,0,0,0-1.282-.6l-.23-.016a.905.905,0,0,0-.352.047v-.753A.923.923,0,0,0,2.2,54.9a1.244,1.244,0,1,0-1.91,0A.923.923,0,0,0,0,55.572V66.794a.352.352,0,0,0,.352.352H1.565a.352.352,0,0,0,.35-.318,4.066,4.066,0,0,1,.856-2.2h.941a.352.352,0,1,0,0-.7H.7v-3.1H5.4v.916a.984.984,0,0,0,.983.983H17.017a.987.987,0,0,0,.28-.041V63.92H3.712a.352.352,0,1,0,0,.7H15.229a4.085,4.085,0,0,1,.856,2.2.352.352,0,0,0,.35.318h1.213A.352.352,0,0,0,18,66.794ZM2.489,57.474c.005-.15-.015-.3.108-.415s.273-.074.424-.064a1.171,1.171,0,0,1,.809.371l1.281,1.424a1.2,1.2,0,0,1,.28.906.437.437,0,0,1-.122.352.455.455,0,0,1-.344.068,1.2,1.2,0,0,1-.871-.374L2.772,58.318a1.19,1.19,0,0,1-.284-.844ZM.7,60.121V55.572a.223.223,0,0,1,.222-.222h.637a.223.223,0,0,1,.222.222v4.549H.7Zm1.785-1.068.961,1.068H2.488ZM1.244,53.565a.541.541,0,1,1-.541.541A.541.541,0,0,1,1.244,53.565Zm.015,12.877H.7V64.623H1.882a5.357,5.357,0,0,0-.623,1.819Zm5.12-4.421a.28.28,0,0,1-.28-.28V59.883h8.993a3.853,3.853,0,0,1,1.738.335.863.863,0,0,1,.467.774v.747h0a.28.28,0,0,1-.28.28H6.379Zm10.363,4.421a5.358,5.358,0,0,0-.623-1.819H17.3v1.819Z" transform="translate(0.2 -52.662)" fill="#37474f" stroke="#37474f" stroke-width="0.4"/>
</svg>
