<svg xmlns="http://www.w3.org/2000/svg" width="14.794" height="18" viewBox="0 0 14.794 18">
  <g id="dazgveva" transform="translate(-45.603)">
    <g id="Group_822" data-name="Group 822" transform="translate(45.603)">
      <g id="Group_821" data-name="Group 821">
        <path id="Path_3892" data-name="Path 3892" d="M58.866,2.112c-.69,0-.933-.351-1.416-1.146-.139-.228-.3-.486-.48-.745L56.812,0H49.188L49.03.221c-.185.259-.342.517-.48.745-.483.794-.726,1.146-1.416,1.146H45.6V8.98c0,4.6,3.129,6.692,6.062,8.292L53,18l1.335-.728c2.933-1.6,6.062-3.692,6.062-8.292V2.112ZM53.828,16.344,53,16.8l-.829-.452C49.382,14.823,46.66,13,46.66,8.98V3.168h.474c1.313,0,1.824-.84,2.319-1.653.091-.15.185-.308.286-.462h6.523c.1.154.195.311.286.462.494.813,1.006,1.653,2.319,1.653h.474V8.98h0C59.34,13,56.617,14.823,53.828,16.344Z" transform="translate(-45.603)" fill="#37474f"/>
      </g>
    </g>
    <g id="Group_824" data-name="Group 824" transform="translate(50.886 4.225)">
      <g id="Group_823" data-name="Group 823">
        <path id="Path_3893" data-name="Path 3893" d="M198,120.176a2.113,2.113,0,1,0,2.113,2.113A2.116,2.116,0,0,0,198,120.176Zm0,3.17a1.057,1.057,0,1,1,1.057-1.057A1.058,1.058,0,0,1,198,123.346Z" transform="translate(-195.887 -120.176)" fill="#37474f"/>
      </g>
    </g>
    <g id="Group_826" data-name="Group 826" transform="translate(49.83 8.452)">
      <g id="Group_825" data-name="Group 825">
        <path id="Path_3894" data-name="Path 3894" d="M169.528,240.4h-1.057a2.645,2.645,0,0,0-2.642,2.642v1.62h6.34v-1.62A2.645,2.645,0,0,0,169.528,240.4Zm1.585,3.205h-4.227v-.564a1.587,1.587,0,0,1,1.585-1.585h1.057a1.587,1.587,0,0,1,1.585,1.585v.564Z" transform="translate(-165.83 -240.402)" fill="#37474f"/>
      </g>
    </g>
  </g>
</svg>
