<svg xmlns="http://www.w3.org/2000/svg" width="18.199" height="18.199" viewBox="0 0 18.199 18.199">
  <g id="xelbargi" transform="translate(-7.9 -7.9)">
    <path id="Path_4772" data-name="Path 4772" d="M35.984,60.5H30.376A1.773,1.773,0,0,0,28.6,62.279v1.35a1.773,1.773,0,0,0,1.776,1.779h5.586a1.773,1.773,0,0,0,1.776-1.779v-1.35A1.742,1.742,0,0,0,35.984,60.5Zm.92,3.15a.914.914,0,0,1-.92.921H30.376a.914.914,0,0,1-.92-.921V62.3a.914.914,0,0,1,.92-.921h5.586a.914.914,0,0,1,.92.921v1.35Z" transform="translate(-16.191 -41.25)" fill="#37474f" stroke="#37474f" stroke-width="0.2"/>
    <path id="Path_4773" data-name="Path 4773" d="M36.391,34.4H29.97a1.371,1.371,0,0,0,0,2.743h6.421a1.371,1.371,0,0,0,0-2.743Zm0,1.907H29.97a.514.514,0,0,1,0-1.029h6.421a.514.514,0,0,1,0,1.029Z" transform="translate(-16.191 -20.743)" fill="#37474f" stroke="#37474f" stroke-width="0.2"/>
    <path id="Path_4774" data-name="Path 4774" d="M24.117,18.007V15.671a5.517,5.517,0,0,0-4.859-5.486,2.27,2.27,0,0,0-4.537,0,5.549,5.549,0,0,0-4.859,5.486v2.336A2.278,2.278,0,0,0,8,20.257v1.264a2.3,2.3,0,0,0,1.862,2.25v.3A1.919,1.919,0,0,0,11.788,26H22.212a1.919,1.919,0,0,0,1.926-1.929v-.3A2.3,2.3,0,0,0,26,21.521V20.257A2.318,2.318,0,0,0,24.117,18.007Zm-7.127-9.15A1.4,1.4,0,0,1,18.4,10.143H15.577A1.4,1.4,0,0,1,16.989,8.857ZM8.856,21.521V20.257a1.454,1.454,0,0,1,1.006-1.371v3.986A1.408,1.408,0,0,1,8.856,21.521Zm14.4,2.55a1.06,1.06,0,0,1-1.07,1.071h-10.4a1.06,1.06,0,0,1-1.07-1.071v-8.4A4.679,4.679,0,0,1,15.149,11h3.7a4.679,4.679,0,0,1,4.43,4.671v8.4Zm1.862-2.55a1.454,1.454,0,0,1-1.006,1.371V18.886a1.454,1.454,0,0,1,1.006,1.371Z" fill="#37474f" stroke="#37474f" stroke-width="0.2"/>
  </g>
</svg>
