<svg xmlns="http://www.w3.org/2000/svg" width="18.5" height="12.239" viewBox="0 0 18.5 12.239">
  <path id="transporti" d="M14.478,64H1.957A1.959,1.959,0,0,0,0,65.957v7.435a.783.783,0,0,0,.783.783h1.6a1.957,1.957,0,0,0,3.834,0h5.557a1.957,1.957,0,0,0,3.834,0h1.6A.783.783,0,0,0,18,73.391v-5.87A3.526,3.526,0,0,0,14.478,64ZM.783,65.957a1.175,1.175,0,0,1,1.174-1.174H12.522V68.7H.783Zm3.522,9a1.174,1.174,0,1,1,1.174-1.174A1.175,1.175,0,0,1,4.3,74.957Zm9.391,0a1.174,1.174,0,1,1,1.174-1.174A1.175,1.175,0,0,1,13.7,74.957Zm3.522-1.565h-1.6a1.957,1.957,0,0,0-3.834,0H6.221a1.957,1.957,0,0,0-3.834,0H.783V69.478H17.217Zm0-4.7H13.3V64.783h1.174a2.742,2.742,0,0,1,2.739,2.739Z" transform="translate(0.25 -63.75)" fill="#37474f" stroke="#37474f" stroke-width="0.5"/>
</svg>
