<svg xmlns="http://www.w3.org/2000/svg" width="16.635" height="16.636" viewBox="0 0 16.635 16.636">
  <g id="koncertis_biletebi" data-name="koncertis biletebi" transform="translate(-3.014 -955.375)">
    <path id="Path_4761" data-name="Path 4761" d="M3.331,965.875l.242.242,1.333,1.333.242.242.242-.242a1.543,1.543,0,0,1,2.182,2.182l-.242.242.242.242,1.333,1.333.242.242.242-.242,9.7-9.7.242-.242-.242-.242-1.333-1.333-.242-.242-.242.242a1.543,1.543,0,0,1-2.182-2.182l.242-.242-.242-.242-1.333-1.333-.242-.242-.242.242-9.7,9.7-.242.242Zm.97,0,6.182-6.182,4.848,4.849-6.182,6.182-.875-.875a2.219,2.219,0,0,0-3.1-3.1l-.871-.871Zm6.667-6.667,2.545-2.545.871.871a2.219,2.219,0,0,0,3.1,3.1l.875.875-2.545,2.545-4.848-4.849Z" fill="#37474f" stroke="#37474f" stroke-width="0.45"/>
  </g>
</svg>
