<svg xmlns="http://www.w3.org/2000/svg" width="24" height="20" viewBox="0 0 24 20">
  <g id="united-states" transform="translate(0 -90.839)">
    <path id="Path_4278" data-name="Path 4278" d="M31.8,90.839H20.965L9,101.535v8.89H31.8l.774-.587v-1.857l-.5-.619v-1.756l.5-.482v-2.857l-.453-.561v-1.8l.453-.5V96.553l-.453-.518V94.461l.453-.765V91.839A.909.909,0,0,0,31.8,90.839Z" transform="translate(-8.578 0)" fill="#e5646e"/>
    <path id="Path_4279" data-name="Path 4279" d="M256.333,138.028h11.984v2.857H256.333Z" transform="translate(-244.317 -44.332)" fill="#f2f2f6"/>
    <path id="Path_4280" data-name="Path 4280" d="M256,232.405l.387,2.857H268v-2.857Z" transform="translate(-244 -132.995)" fill="#f2f2f6"/>
    <path id="Path_4281" data-name="Path 4281" d="M.774,276.092V271L0,271.52v2.857l.328.361v1.877L0,277.235v1.857a.909.909,0,0,0,.774,1H23.226a.909.909,0,0,0,.774-1H3.1c-1.283,0-2.323-1.343-2.323-3Z" transform="translate(0 -169.253)" fill="#db4655"/>
    <path id="Path_4282" data-name="Path 4282" d="M18.106,90.839H6.493l-.493,1,.493,10.429H18.106Z" transform="translate(-5.719 0)" fill="#5055a0"/>
    <path id="Path_4283" data-name="Path 4283" d="M.774,90.839a.909.909,0,0,0-.774,1v10.429H.774Z" transform="translate(0 0)" fill="#3f3f8f"/>
    <path id="Path_4284" data-name="Path 4284" d="M25.2,112.141a.516.516,0,0,1,0-1h0a.516.516,0,0,1,0,1Z" transform="translate(-23.652 -19.073)" fill="#fff"/>
    <path id="Path_4285" data-name="Path 4285" d="M25.2,178.206a.516.516,0,0,1,0-1h0a.516.516,0,0,1,0,1Z" transform="translate(-23.652 -81.138)" fill="#fff"/>
    <path id="Path_4286" data-name="Path 4286" d="M25.2,244.27a.516.516,0,0,1,0-1h0a.516.516,0,0,1,0,1Z" transform="translate(-23.652 -143.202)" fill="#fff"/>
    <path id="Path_4287" data-name="Path 4287" d="M25.2,145.174a.516.516,0,0,1,0-1h0a.516.516,0,0,1,0,1Z" transform="translate(-23.652 -50.106)" fill="#f2f2f6"/>
    <path id="Path_4288" data-name="Path 4288" d="M25.2,211.238a.516.516,0,0,1,0-1h0a.516.516,0,0,1,0,1Z" transform="translate(-23.652 -112.17)" fill="#f2f2f6"/>
    <path id="Path_4289" data-name="Path 4289" d="M223.4,112.141a.516.516,0,0,1,0-1h0a.516.516,0,0,1,0,1Z" transform="translate(-212.554 -19.073)" fill="#fff"/>
    <path id="Path_4290" data-name="Path 4290" d="M223.4,178.206a.516.516,0,0,1,0-1h0a.516.516,0,0,1,0,1Z" transform="translate(-212.554 -81.138)" fill="#fff"/>
    <path id="Path_4291" data-name="Path 4291" d="M223.4,244.27a.516.516,0,0,1,0-1h0a.516.516,0,0,1,0,1Z" transform="translate(-212.554 -143.202)" fill="#fff"/>
    <g id="Group_987" data-name="Group 987" transform="translate(3.486 92.068)">
      <path id="Path_4292" data-name="Path 4292" d="M223.4,145.174a.516.516,0,0,1,0-1h0a.516.516,0,0,1,0,1Z" transform="translate(-216.04 -142.174)" fill="#f2f2f6"/>
      <path id="Path_4293" data-name="Path 4293" d="M223.4,211.238a.516.516,0,0,1,0-1h0a.516.516,0,0,1,0,1Z" transform="translate(-216.04 -204.238)" fill="#f2f2f6"/>
      <path id="Path_4294" data-name="Path 4294" d="M74.752,112.141a.516.516,0,0,1,0-1h0a.516.516,0,0,1,0,1Z" transform="translate(-74.363 -111.141)" fill="#f2f2f6"/>
      <path id="Path_4295" data-name="Path 4295" d="M74.752,178.206a.516.516,0,0,1,0-1h0a.516.516,0,0,1,0,1Z" transform="translate(-74.363 -173.206)" fill="#f2f2f6"/>
      <path id="Path_4296" data-name="Path 4296" d="M74.752,244.27a.516.516,0,0,1,0-1h0a.516.516,0,0,1,0,1Z" transform="translate(-74.363 -235.27)" fill="#f2f2f6"/>
    </g>
    <path id="Path_4297" data-name="Path 4297" d="M74.752,145.174a.516.516,0,0,1,0-1h0a.516.516,0,0,1,0,1Z" transform="translate(-70.877 -50.106)" fill="#fff"/>
    <path id="Path_4298" data-name="Path 4298" d="M74.752,211.238a.516.516,0,0,1,0-1h0a.516.516,0,0,1,0,1Z" transform="translate(-70.877 -112.17)" fill="#fff"/>
    <path id="Path_4299" data-name="Path 4299" d="M49.978,128.657a.516.516,0,0,1,0-1h0a.516.516,0,0,1,0,1Z" transform="translate(-47.265 -34.589)" fill="#fff"/>
    <path id="Path_4300" data-name="Path 4300" d="M49.978,194.722a.516.516,0,0,1,0-1h0a.516.516,0,0,1,0,1Z" transform="translate(-47.265 -96.654)" fill="#fff"/>
    <path id="Path_4301" data-name="Path 4301" d="M49.978,161.69a.516.516,0,0,1,0-1h0a.516.516,0,0,1,0,1Z" transform="translate(-47.265 -65.622)" fill="#f2f2f6"/>
    <path id="Path_4302" data-name="Path 4302" d="M49.978,227.754a.516.516,0,0,1,0-1h0a.516.516,0,0,1,0,1Z" transform="translate(-47.265 -127.686)" fill="#f2f2f6"/>
    <path id="Path_4303" data-name="Path 4303" d="M124.3,112.141a.516.516,0,0,1,0-1h0a.516.516,0,0,1,0,1Z" transform="translate(-118.104 -19.073)" fill="#fff"/>
    <path id="Path_4304" data-name="Path 4304" d="M124.3,178.206a.516.516,0,0,1,0-1h0a.516.516,0,0,1,0,1Z" transform="translate(-118.104 -81.138)" fill="#fff"/>
    <path id="Path_4305" data-name="Path 4305" d="M124.3,244.27a.516.516,0,0,1,0-1h0a.516.516,0,0,1,0,1Z" transform="translate(-118.104 -143.202)" fill="#fff"/>
    <path id="Path_4306" data-name="Path 4306" d="M124.3,145.174a.516.516,0,0,1,0-1h0a.516.516,0,0,1,0,1Z" transform="translate(-118.104 -50.106)" fill="#f2f2f6"/>
    <path id="Path_4307" data-name="Path 4307" d="M124.3,211.238a.516.516,0,0,1,0-1h0a.516.516,0,0,1,0,1Z" transform="translate(-118.104 -112.17)" fill="#f2f2f6"/>
    <path id="Path_4308" data-name="Path 4308" d="M99.526,128.657a.516.516,0,0,1,0-1h0a.516.516,0,0,1,0,1Z" transform="translate(-94.49 -34.589)" fill="#f2f2f6"/>
    <path id="Path_4309" data-name="Path 4309" d="M99.526,194.722a.516.516,0,0,1,0-1h0a.516.516,0,0,1,0,1Z" transform="translate(-94.49 -96.654)" fill="#f2f2f6"/>
    <path id="Path_4310" data-name="Path 4310" d="M99.526,161.69a.516.516,0,0,1,0-1h0a.516.516,0,0,1,0,1Z" transform="translate(-94.49 -65.622)" fill="#fff"/>
    <path id="Path_4311" data-name="Path 4311" d="M99.526,227.754a.516.516,0,0,1,0-1h0a.516.516,0,0,1,0,1Z" transform="translate(-94.49 -127.686)" fill="#fff"/>
    <path id="Path_4312" data-name="Path 4312" d="M173.768,112.141a.516.516,0,0,1,0-1h0a.516.516,0,0,1,0,1Z" transform="translate(-165.252 -19.073)" fill="#f2f2f6"/>
    <path id="Path_4313" data-name="Path 4313" d="M173.768,178.206a.516.516,0,0,1,0-1h0a.516.516,0,0,1,0,1Z" transform="translate(-165.252 -81.138)" fill="#f2f2f6"/>
    <path id="Path_4314" data-name="Path 4314" d="M173.768,244.27a.516.516,0,0,1,0-1h0a.516.516,0,0,1,0,1Z" transform="translate(-165.252 -143.202)" fill="#f2f2f6"/>
    <path id="Path_4315" data-name="Path 4315" d="M173.768,145.174a.516.516,0,0,1,0-1h0a.516.516,0,0,1,0,1Z" transform="translate(-165.252 -50.106)" fill="#fff"/>
    <path id="Path_4316" data-name="Path 4316" d="M173.768,211.238a.516.516,0,0,1,0-1h0a.516.516,0,0,1,0,1Z" transform="translate(-165.252 -112.17)" fill="#fff"/>
    <path id="Path_4317" data-name="Path 4317" d="M148.994,128.657a.516.516,0,0,1,0-1h0a.516.516,0,0,1,0,1Z" transform="translate(-141.639 -34.589)" fill="#fff"/>
    <path id="Path_4318" data-name="Path 4318" d="M148.994,194.722a.516.516,0,0,1,0-1h0a.516.516,0,0,1,0,1Z" transform="translate(-141.639 -96.654)" fill="#fff"/>
    <path id="Path_4319" data-name="Path 4319" d="M148.994,161.69a.516.516,0,0,1,0-1h0a.516.516,0,0,1,0,1Z" transform="translate(-141.639 -65.622)" fill="#f2f2f6"/>
    <path id="Path_4320" data-name="Path 4320" d="M148.994,227.754a.516.516,0,0,1,0-1h0a.516.516,0,0,1,0,1Z" transform="translate(-141.639 -127.686)" fill="#f2f2f6"/>
    <path id="Path_4321" data-name="Path 4321" d="M198.623,128.657a.516.516,0,0,1,0-1h0a.516.516,0,0,1,0,1Z" transform="translate(-188.942 -34.589)" fill="#f2f2f6"/>
    <path id="Path_4322" data-name="Path 4322" d="M198.623,194.722a.516.516,0,0,1,0-1h0a.516.516,0,0,1,0,1Z" transform="translate(-188.942 -96.654)" fill="#f2f2f6"/>
    <path id="Path_4323" data-name="Path 4323" d="M198.623,161.69a.516.516,0,0,1,0-1h0a.516.516,0,0,1,0,1Z" transform="translate(-188.942 -65.622)" fill="#fff"/>
    <path id="Path_4324" data-name="Path 4324" d="M198.623,227.754a.516.516,0,0,1,0-1h0a.516.516,0,0,1,0,1Z" transform="translate(-188.942 -127.686)" fill="#fff"/>
    <path id="Path_4325" data-name="Path 4325" d="M3,328.814l.809.826h23.05v-2.857H3.634Z" transform="translate(-2.859 -221.658)" fill="#f2f2f6"/>
    <path id="Path_4326" data-name="Path 4326" d="M0,326.782v2.857H.95A3.759,3.759,0,0,1,.774,328.5v-1.714H0Z" transform="translate(0 -221.657)" fill="#e1e1e6"/>
  </g>
</svg>
