<svg id="logo" xmlns="http://www.w3.org/2000/svg" width="147.098" height="35.019" viewBox="0 0 147.098 35.019">
  <g id="Group_1" data-name="Group 1" transform="translate(122.042 9.251)">
    <path id="Path_1" data-name="Path 1" d="M603.123,90.2a.826.826,0,0,0-.223.607v1.376h2.348V90h-1.457A1.011,1.011,0,0,0,603.123,90.2Z" transform="translate(-602.9 -81.033)" fill="#0ac789"/>
    <path id="Path_2" data-name="Path 2" d="M686.266,47.3a4.517,4.517,0,0,0-3.846-1.6,4.866,4.866,0,0,0-3.765,1.417,6.155,6.155,0,0,0-1.255,4.21,6.306,6.306,0,0,0,1.235,4.251,4.828,4.828,0,0,0,3.745,1.518,5.134,5.134,0,0,0,3.2-.931,4.947,4.947,0,0,0,1.619-2.692h-2.024a1.521,1.521,0,0,0-.526.1,1.206,1.206,0,0,0-.425.283,3,3,0,0,1-.85.607,2.147,2.147,0,0,1-.931.2,1.956,1.956,0,0,1-1.559-.648,3.063,3.063,0,0,1-.607-1.883h7.085A7.269,7.269,0,0,0,686.266,47.3Zm-5.971,2.854a3.056,3.056,0,0,1,.668-1.66,1.889,1.889,0,0,1,1.417-.567,1.773,1.773,0,0,1,1.4.567,2.839,2.839,0,0,1,.627,1.66Z" transform="translate(-662.319 -45.7)" fill="#0ac789"/>
    <path id="Path_3" data-name="Path 3" d="M625.9,46.3a5.083,5.083,0,0,0-3.826,1.417,5.934,5.934,0,0,0-1.275,4.129,6.952,6.952,0,0,0,1.093,4.271,3.905,3.905,0,0,0,3.3,1.417,4.086,4.086,0,0,0,1.822-.4,3.281,3.281,0,0,0,1.316-1.215v1.134a2.742,2.742,0,0,1-.567,1.9,2.046,2.046,0,0,1-1.64.648,2.873,2.873,0,0,1-1.356-.283,1.339,1.339,0,0,1-.628-.87h-3.057a4.7,4.7,0,0,0,1.66,2.611,4.973,4.973,0,0,0,3.057.87,6.552,6.552,0,0,0,3.947-1.093,3.781,3.781,0,0,0,1.316-3.117V51.2a4.893,4.893,0,0,0-1.275-3.7A5.425,5.425,0,0,0,625.9,46.3Zm.04,8.805a1.935,1.935,0,0,1-1.68-.789,4.22,4.22,0,0,1-.607-2.389,4.356,4.356,0,0,1,.567-2.49,1.968,1.968,0,0,1,1.761-.83,2.015,2.015,0,0,1,1.761.83,4.2,4.2,0,0,1,.567,2.49C628.249,54.05,627.46,55.1,625.941,55.1Z" transform="translate(-617.177 -46.176)" fill="#0ac789"/>
  </g>
  <g id="Group_2" data-name="Group 2" transform="translate(65.97 6.255)">
    <path id="Path_4" data-name="Path 4" d="M584.353,32.356A1.16,1.16,0,0,0,583.037,31H581.6v2.166h2.773v-.81Z" transform="translate(-529.84 -30.98)" fill="#fff"/>
    <path id="Path_5" data-name="Path 5" d="M529.862,45.211a5.14,5.14,0,0,0,3.846-1.437,5.934,5.934,0,0,0,1.275-4.129,6.927,6.927,0,0,0-1.093-4.251,4.115,4.115,0,0,0-3.3-1.518,3.7,3.7,0,0,0-1.8.425,3.4,3.4,0,0,0-1.3,1.275V32.317a1.531,1.531,0,0,0-.344-1.053,1.335,1.335,0,0,0-1.032-.364H524.7v9.372a4.893,4.893,0,0,0,1.275,3.7A5.256,5.256,0,0,0,529.862,45.211ZM528.1,37.155a2.01,2.01,0,0,1,1.721-.789,1.911,1.911,0,0,1,1.68.789,4.161,4.161,0,0,1,.628,2.389,4.461,4.461,0,0,1-.587,2.51,2.042,2.042,0,0,1-1.781.85,1.947,1.947,0,0,1-1.741-.85,5.236,5.236,0,0,1,.081-4.9Z" transform="translate(-484.458 -30.9)" fill="#fff"/>
    <path id="Path_6" data-name="Path 6" d="M584.273,47.836a1.261,1.261,0,0,0-.344-.992,1.338,1.338,0,0,0-.992-.344H581.5V57.492h2.773Z" transform="translate(-529.76 -43.342)" fill="#fff"/>
    <path id="Path_7" data-name="Path 7" d="M383.317,56.843a6.321,6.321,0,0,0,1.5.708,5.31,5.31,0,0,0,1.619.223,6.745,6.745,0,0,0,1.7-.2,7.388,7.388,0,0,0,1.559-.628,2.619,2.619,0,0,0,1.073-1.4,6.577,6.577,0,0,0,.364-2.348V46.6h-1.417a1.357,1.357,0,0,0-1.012.344,1.3,1.3,0,0,0-.3,1.012v5.81a1.884,1.884,0,0,1-.466,1.376,1.9,1.9,0,0,1-1.4.466,1.989,1.989,0,0,1-1.417-.466,1.884,1.884,0,0,1-.466-1.376V46.6H381.9v6.6a6.269,6.269,0,0,0,.364,2.308A2.594,2.594,0,0,0,383.317,56.843Z" transform="translate(-370.564 -43.422)" fill="#fff"/>
    <path id="Path_8" data-name="Path 8" d="M330.07,45.129h2.874V33.53h4.17V31h-9.777a1.376,1.376,0,0,0-1.032.466,1.57,1.57,0,0,0-.4,1.073v.992h4.17v11.6Z" transform="translate(-325.9 -30.98)" fill="#fff"/>
    <path id="Path_9" data-name="Path 9" d="M436.193,51.783a2.537,2.537,0,0,1,.587-1.8,2.255,2.255,0,0,1,1.721-.607h.931V46.5h-.385a5.921,5.921,0,0,0-4.17,1.316A5.523,5.523,0,0,0,433.4,51.8v5.668h2.793Z" transform="translate(-411.639 -43.342)" fill="#fff"/>
    <path id="Path_10" data-name="Path 10" d="M474.259,57.1a5.134,5.134,0,0,0,3.2-.931,4.948,4.948,0,0,0,1.619-2.692h-2.024a1.521,1.521,0,0,0-.526.1,1.206,1.206,0,0,0-.425.283,2.994,2.994,0,0,1-.85.607,2.147,2.147,0,0,1-.931.2,1.956,1.956,0,0,1-1.559-.648,3.063,3.063,0,0,1-.607-1.883h7.085a7.275,7.275,0,0,0-1.073-4.838,4.518,4.518,0,0,0-3.846-1.6,4.865,4.865,0,0,0-3.765,1.417,6.155,6.155,0,0,0-1.255,4.21,6.306,6.306,0,0,0,1.235,4.251A4.891,4.891,0,0,0,474.259,57.1Zm-1.417-8.583a1.889,1.889,0,0,1,1.417-.567,1.773,1.773,0,0,1,1.4.567,2.84,2.84,0,0,1,.628,1.66h-4.109A2.928,2.928,0,0,1,472.842,48.514Z" transform="translate(-440.272 -42.704)" fill="#fff"/>
  </g>
  <g id="Group_3" data-name="Group 3" transform="translate(42.853 26.639)">
    <path id="Path_11" data-name="Path 11" d="M327.69,135.71l.061-.81H327l.061.81a1.881,1.881,0,0,0-1.336.749,3.018,3.018,0,0,0-.526,1.883,2.969,2.969,0,0,0,.587,1.943,1.973,1.973,0,0,0,1.619.708,1.932,1.932,0,0,0,1.6-.708,2.965,2.965,0,0,0,.567-1.943,3,3,0,0,0-.547-1.9A1.93,1.93,0,0,0,327.69,135.71Zm.729,4.109a1.146,1.146,0,0,1-1.012.506,1.2,1.2,0,0,1-1.032-.526,3.261,3.261,0,0,1-.04-2.915,1.214,1.214,0,0,1,.769-.567L327,138.5h.81l-.1-2.186a1.147,1.147,0,0,1,.769.567,2.637,2.637,0,0,1,.324,1.457A3.077,3.077,0,0,1,328.418,139.819Z" transform="translate(-302.225 -134.232)" fill="#fff"/>
    <path id="Path_12" data-name="Path 12" d="M308.835,134.067a1.38,1.38,0,0,1-.4-1.154h-.769a1.793,1.793,0,0,0,.4,1.316,1.2,1.2,0,0,1,.4.85,1.535,1.535,0,0,1-.283,1.032.8.8,0,0,1-.607.344.836.836,0,0,1-.648-.344,1.5,1.5,0,0,1-.283-1.032V131.8H305.9v3.279a2.667,2.667,0,0,0,.2,1.073,1.644,1.644,0,0,0,1.457.972,1.454,1.454,0,0,0,.85-.263,1.558,1.558,0,0,0,.607-.729,2.506,2.506,0,0,0,.2-1.053A1.171,1.171,0,0,0,308.835,134.067Z" transform="translate(-286.832 -131.76)" fill="#fff"/>
    <path id="Path_13" data-name="Path 13" d="M260.614,133.2a1.63,1.63,0,0,0-.87-.263,1.064,1.064,0,0,0-1.012.668,1.118,1.118,0,0,0-.992-.668,1.07,1.07,0,0,0-.607.223,3.416,3.416,0,0,1,1.316-.688,4.834,4.834,0,0,1,1.3-.2V131.6a3.953,3.953,0,0,0-2.632.85A2.97,2.97,0,0,0,256.1,134.9a2.806,2.806,0,0,0,1.073,1.943h1.012a2.719,2.719,0,0,1-1.3-1.943,1.548,1.548,0,0,1,.283-1.012.806.806,0,0,1,.607-.3c.364,0,.567.263.567.789v.951h.789v-.951c0-.526.2-.789.587-.789a.814.814,0,0,1,.628.3,1.511,1.511,0,0,1,.283,1.012,2.709,2.709,0,0,1-1.255,1.943h.972a2.447,2.447,0,0,0,.891-2.955A2.282,2.282,0,0,0,260.614,133.2Z" transform="translate(-247.112 -131.6)" fill="#fff"/>
    <path id="Path_14" data-name="Path 14" d="M238.319,138.1a1.209,1.209,0,0,0-.789-.3.855.855,0,0,0-.729.4.718.718,0,0,0-.668-.364h-.364a.929.929,0,0,1-.445-.142l-.223.567a1.13,1.13,0,0,0,.668.2h.364a.326.326,0,0,1,.182.061.26.26,0,0,1,.081.2v1.073h.769v-1.073a.254.254,0,0,1,.121-.223.6.6,0,0,1,.263-.1.426.426,0,0,1,.263.1.326.326,0,0,1,.121.263v2.389a2.989,2.989,0,0,1-.061.85.786.786,0,0,1-.283.4,1.107,1.107,0,0,1-.587.162.893.893,0,0,1-.607-.243.748.748,0,0,1-.283-.587,2.413,2.413,0,0,1,.344-1.113h-.789a2.056,2.056,0,0,0-.344.911,1.729,1.729,0,0,0,.2.87,1.476,1.476,0,0,0,.567.607,1.955,1.955,0,0,0,.911.223,1.9,1.9,0,0,0,.911-.223,1.311,1.311,0,0,0,.587-.607,3.145,3.145,0,0,0,.182-1.255v-2.389A1.013,1.013,0,0,0,238.319,138.1Z" transform="translate(-230.363 -136.465)" fill="#fff"/>
    <path id="Path_15" data-name="Path 15" d="M214.17,135.71l.061-.81H213.5l.061.81a1.881,1.881,0,0,0-1.336.749,3.018,3.018,0,0,0-.526,1.883,2.969,2.969,0,0,0,.587,1.943,1.959,1.959,0,0,0,1.6.708,2,2,0,0,0,1.619-.708,2.965,2.965,0,0,0,.567-1.943,3.124,3.124,0,0,0-.526-1.9A2.107,2.107,0,0,0,214.17,135.71Zm.729,4.109a1.181,1.181,0,0,1-1.032.506,1.2,1.2,0,0,1-1.032-.526,3.261,3.261,0,0,1-.041-2.915,1.214,1.214,0,0,1,.769-.567l-.1,2.186h.81l-.1-2.186a1.147,1.147,0,0,1,.769.567,2.638,2.638,0,0,1,.324,1.457A2.528,2.528,0,0,1,214.9,139.819Z" transform="translate(-211.7 -134.232)" fill="#fff"/>
    <path id="Path_16" data-name="Path 16" d="M351.739,138.1a1.222,1.222,0,0,0-.81-.3.8.8,0,0,0-.708.4.729.729,0,0,0-.688-.364h-.364a.929.929,0,0,1-.445-.142l-.223.567a1.13,1.13,0,0,0,.668.2h.364a.326.326,0,0,1,.182.061.281.281,0,0,1,.1.2v1.073h.769v-1.073a.29.29,0,0,1,.1-.223.6.6,0,0,1,.263-.1.427.427,0,0,1,.263.1.327.327,0,0,1,.121.263v2.389a2.991,2.991,0,0,1-.061.85.83.83,0,0,1-.3.4,1.107,1.107,0,0,1-.587.162.893.893,0,0,1-.607-.243.748.748,0,0,1-.283-.587,2.413,2.413,0,0,1,.344-1.113h-.789a2.057,2.057,0,0,0-.344.911,1.73,1.73,0,0,0,.2.87,1.477,1.477,0,0,0,.567.607,1.956,1.956,0,0,0,.911.223,1.9,1.9,0,0,0,.911-.223,1.311,1.311,0,0,0,.587-.607,3.078,3.078,0,0,0,.2-1.255v-2.389A.788.788,0,0,0,351.739,138.1Z" transform="translate(-320.808 -136.465)" fill="#fff"/>
    <path id="Path_17" data-name="Path 17" d="M288.191,138.463a1.715,1.715,0,0,0-.911-.263,1.554,1.554,0,0,0-.911.263,1.682,1.682,0,0,0-.587.708,2.437,2.437,0,0,0-.182.911,4.979,4.979,0,0,0,.668,2.044h.85a4.105,4.105,0,0,1-.729-2.065,1.4,1.4,0,0,1,.283-.911.861.861,0,0,1,.607-.344.8.8,0,0,1,.628.344,1.362,1.362,0,0,1,.283.911,4.2,4.2,0,0,1-.688,2.065h.81a5.069,5.069,0,0,0,.668-2.044,2.257,2.257,0,0,0-.2-.911A1.843,1.843,0,0,0,288.191,138.463Z" transform="translate(-270.641 -136.864)" fill="#fff"/>
    <path id="Path_18" data-name="Path 18" d="M410.291,138.463a1.716,1.716,0,0,0-.911-.263,1.554,1.554,0,0,0-.911.263,1.414,1.414,0,0,0-.567.708,2.955,2.955,0,0,0-.2.911,4.979,4.979,0,0,0,.668,2.044h.85a4.105,4.105,0,0,1-.729-2.065,1.521,1.521,0,0,1,.263-.911.862.862,0,0,1,.607-.344.8.8,0,0,1,.627.344,1.259,1.259,0,0,1,.263.911,4.2,4.2,0,0,1-.688,2.065h.81a5.069,5.069,0,0,0,.668-2.044,2.257,2.257,0,0,0-.2-.911A1.467,1.467,0,0,0,410.291,138.463Z" transform="translate(-368.025 -136.864)" fill="#fff"/>
    <path id="Path_19" data-name="Path 19" d="M542.691,137.474a1.467,1.467,0,0,1-.81-1.174h-.769a1.609,1.609,0,0,0,.789,1.376,1.577,1.577,0,0,1,.789,1.356,1.122,1.122,0,0,1-.324.81.859.859,0,0,1-1.174-.061,1.15,1.15,0,0,1-.283-.87,2.235,2.235,0,0,1,.263-.85l-.668-.283a2.093,2.093,0,0,0-.4,1.134,1.81,1.81,0,0,0,.486,1.255,1.565,1.565,0,0,0,1.194.526,1.6,1.6,0,0,0,1.255-.526,1.7,1.7,0,0,0,.465-1.134A1.808,1.808,0,0,0,542.691,137.474Z" transform="translate(-473.624 -135.349)" fill="#fff"/>
    <path id="Path_20" data-name="Path 20" d="M566.175,138.3a1.615,1.615,0,0,0-.85-.263.972.972,0,0,0-.972.526A.984.984,0,0,0,563.4,138a.966.966,0,0,0-.911.567,1.05,1.05,0,0,0-.972-.526,1.352,1.352,0,0,0-.83.263,2.061,2.061,0,0,0-.587.668,2.3,2.3,0,0,0-.2.911,2.325,2.325,0,0,0,1.316,2.085,4.6,4.6,0,0,0-.871.1v.708a9.632,9.632,0,0,1,2.085-.223,3.847,3.847,0,0,1,1.336.223c.385.162.607.385.607.648h.972c-.041-.4-.344-.749-.911-1.053a5.12,5.12,0,0,0-2.186-.506c-1.032-.506-1.559-1.154-1.559-1.964a1.436,1.436,0,0,1,.263-.911.76.76,0,0,1,.546-.3c.364,0,.567.283.567.81v1.053h.789V139.5c0-.567.182-.85.526-.85q.547,0,.547.85v1.053h.789V139.5c0-.547.2-.81.587-.81a.845.845,0,0,1,.567.283,1.257,1.257,0,0,1,.263.911,2.46,2.46,0,0,1-1.073,1.721h1.053a2.666,2.666,0,0,0,.83-1.721,1.888,1.888,0,0,0-.2-.911A1.67,1.67,0,0,0,566.175,138.3Z" transform="translate(-489.416 -136.704)" fill="#fff"/>
    <path id="Path_21" data-name="Path 21" d="M600.691,138.463a1.715,1.715,0,0,0-.911-.263,1.587,1.587,0,0,0-1.5.972,2.437,2.437,0,0,0-.182.911,4.977,4.977,0,0,0,.668,2.044h.85a4.106,4.106,0,0,1-.729-2.065,1.4,1.4,0,0,1,.283-.911.861.861,0,0,1,.607-.344.8.8,0,0,1,.627.344,1.362,1.362,0,0,1,.283.911,4.2,4.2,0,0,1-.688,2.065h.81a5.069,5.069,0,0,0,.668-2.044,2.26,2.26,0,0,0-.2-.911A1.682,1.682,0,0,0,600.691,138.463Z" transform="translate(-519.883 -136.864)" fill="#fff"/>
    <path id="Path_22" data-name="Path 22" d="M375.755,138.3a1.615,1.615,0,0,0-.85-.263A1.1,1.1,0,0,1,373,138a.966.966,0,0,0-.911.567,1.051,1.051,0,0,0-.972-.526,1.454,1.454,0,0,0-.85.263,1.624,1.624,0,0,0-.567.668,2.269,2.269,0,0,0,1.113,3,4.6,4.6,0,0,0-.87.1v.708a9.5,9.5,0,0,1,2.085-.223,3.846,3.846,0,0,1,1.336.223c.385.162.607.385.607.648h.972c-.04-.4-.344-.749-.911-1.053a5.121,5.121,0,0,0-2.186-.506c-1.032-.506-1.559-1.154-1.559-1.964a1.325,1.325,0,0,1,.283-.911.76.76,0,0,1,.547-.3c.364,0,.567.283.567.81v1.053h.79V139.5c0-.567.182-.85.526-.85.364,0,.526.283.526.85v1.053h.789V139.5c0-.547.2-.81.587-.81a.845.845,0,0,1,.567.283,1.256,1.256,0,0,1,.283.911,2.43,2.43,0,0,1-1.093,1.721h1.053a2.666,2.666,0,0,0,.83-1.721,1.889,1.889,0,0,0-.2-.911A1.716,1.716,0,0,0,375.755,138.3Z" transform="translate(-337.557 -136.704)" fill="#fff"/>
    <path id="Path_23" data-name="Path 23" d="M518.29,135.71l.061-.81H517.6l.081.81a1.963,1.963,0,0,0-1.356.749,3.018,3.018,0,0,0-.526,1.883,3.084,3.084,0,0,0,.567,1.943,1.973,1.973,0,0,0,1.62.708,2,2,0,0,0,1.619-.708,2.965,2.965,0,0,0,.567-1.943,3,3,0,0,0-.547-1.9A1.93,1.93,0,0,0,518.29,135.71Zm.729,4.109a1.169,1.169,0,0,1-1.012.506,1.2,1.2,0,0,1-1.032-.526,3.26,3.26,0,0,1-.04-2.915,1.213,1.213,0,0,1,.769-.567l-.1,2.186h.81l-.1-2.186a1.147,1.147,0,0,1,.769.567,2.637,2.637,0,0,1,.324,1.457A3.078,3.078,0,0,1,519.018,139.819Z" transform="translate(-454.243 -134.232)" fill="#fff"/>
    <path id="Path_24" data-name="Path 24" d="M491.155,134a1.646,1.646,0,0,0-.891-.263,1.064,1.064,0,0,0-1.012.668,1.118,1.118,0,0,0-.992-.668,1.07,1.07,0,0,0-.607.223,3.416,3.416,0,0,1,1.316-.688,4.819,4.819,0,0,1,1.275-.2v-.445c-.486,0-.972,0-1.437-.02a3.593,3.593,0,0,0-1.194.648A2.97,2.97,0,0,0,486.6,135.7a2.806,2.806,0,0,0,1.073,1.943h1.012a2.683,2.683,0,0,1-1.275-1.943,1.684,1.684,0,0,1,.263-1.012.72.72,0,0,1,.607-.3c.364,0,.567.263.567.789v.951h.789v-.951c0-.526.2-.789.587-.789a.815.815,0,0,1,.628.3,1.517,1.517,0,0,1,.263,1.012,2.709,2.709,0,0,1-1.255,1.943h.972A2.806,2.806,0,0,0,491.9,135.7a2.444,2.444,0,0,0-.2-1.012A1.513,1.513,0,0,0,491.155,134Z" transform="translate(-430.953 -132.398)" fill="#fff"/>
    <path id="Path_25" data-name="Path 25" d="M439.933,133.886a.954.954,0,0,0,.567-.951c0-.4-.263-.668-.769-.789s-.769-.243-.769-.364V131.7h-.911c0,.445.283.729.83.81s.81.263.81.506a.417.417,0,0,1-.142.344.593.593,0,0,1-.425.121h-.688v.668h.466a.863.863,0,0,1,.628.283.946.946,0,0,1,.263.688,1.312,1.312,0,0,1-.283.931.759.759,0,0,1-1.215,0,1.347,1.347,0,0,1-.283-.931,3.271,3.271,0,0,1,.121-.769h-.769a2.184,2.184,0,0,0-.162.769,2.3,2.3,0,0,0,.223.992,1.4,1.4,0,0,0,.607.668,1.663,1.663,0,0,0,.87.243,1.7,1.7,0,0,0,.85-.243,1.663,1.663,0,0,0,.628-.668,2.3,2.3,0,0,0,.223-.992,1.6,1.6,0,0,0-.182-.708A1.12,1.12,0,0,0,439.933,133.886Z" transform="translate(-391.553 -131.68)" fill="#fff"/>
    <path id="Path_26" data-name="Path 26" d="M461.655,138.463a1.646,1.646,0,0,0-.891-.263,1.116,1.116,0,0,0-1.012.526,1.131,1.131,0,0,0-.992-.526,1.534,1.534,0,0,0-.891.263,1.415,1.415,0,0,0-.567.708,2.733,2.733,0,0,0-.2,1.012,2.806,2.806,0,0,0,1.073,1.943h.972a2.673,2.673,0,0,1-1.235-1.943,1.683,1.683,0,0,1,.263-1.012.769.769,0,0,1,.607-.324c.364,0,.567.263.567.789v.951h.789v-.951c0-.526.2-.789.587-.789a.777.777,0,0,1,.628.324,1.517,1.517,0,0,1,.263,1.012,2.7,2.7,0,0,1-1.214,1.943h.931a2.806,2.806,0,0,0,1.073-1.943,2.445,2.445,0,0,0-.2-1.012A1.467,1.467,0,0,0,461.655,138.463Z" transform="translate(-407.425 -136.864)" fill="#fff"/>
  </g>
  <g id="Group_4" data-name="Group 4">
    <path id="Path_27" data-name="Path 27" d="M0,34.028l17.915-3.239,10.749,4.231L70.97,0Z" fill="#0ac789"/>
    <path id="Path_28" data-name="Path 28" d="M28.869,24.149l-5.931-2.024L84.05,0,16.4,22.125Z" transform="translate(-13.08)" fill="#0ac789"/>
  </g>
</svg>