<svg xmlns="http://www.w3.org/2000/svg" width="17.5" height="20.372" viewBox="0 0 17.5 20.372">
  <g id="location_grene" data-name="location grene" transform="translate(0.25 0.25)">
    <g id="Group_779" data-name="Group 779">
      <g id="Group_778" data-name="Group 778" transform="translate(0)">
        <path id="Path_3860" data-name="Path 3860" d="M53.961,2.462a8.568,8.568,0,0,0-12.021,0,8.3,8.3,0,0,0-2.49,5.943c0,4.542,4.343,8.319,6.676,10.349.324.282.6.526.827.732a1.477,1.477,0,0,0,1.994,0c.223-.206.5-.45.827-.732,2.333-2.029,6.676-5.807,6.676-10.349A8.3,8.3,0,0,0,53.961,2.462ZM49,17.88c-.331.288-.617.537-.853.755a.286.286,0,0,1-.387,0c-.236-.218-.522-.467-.853-.755-2.193-1.908-6.276-5.459-6.276-9.474a7.323,7.323,0,0,1,14.646,0C55.274,12.42,51.191,15.972,49,17.88Z" transform="translate(-39.451 0)" fill="#09c688" stroke="#09c688" stroke-width="0.5"/>
      </g>
    </g>
    <g id="Group_781" data-name="Group 781" transform="translate(4.754 4.384)">
      <g id="Group_780" data-name="Group 780">
        <path id="Path_3861" data-name="Path 3861" d="M164.316,112.938a3.7,3.7,0,1,0,3.746,3.7A3.729,3.729,0,0,0,164.316,112.938Zm0,6.244a2.54,2.54,0,1,1,2.569-2.54A2.557,2.557,0,0,1,164.316,119.182Z" transform="translate(-160.57 -112.938)" fill="#09c688" stroke="#09c688" stroke-width="0.5"/>
      </g>
    </g>
  </g>
</svg>
